<svg width="28" height="25" viewBox="0 0 28 25" fill="none" xmlns="http://www.w3.org/2000/svg">
<g clip-path="url(#clip0_30_4319)">
<path d="M2.93282 9.2342C2.55625 9.61077 2.55625 10.2213 2.93282 10.5979C3.3094 10.9745 3.91995 10.9745 4.29653 10.5979L6.50753 8.3869L6.50753 19.5589C6.50753 20.0915 6.93926 20.5232 7.47182 20.5232C8.00438 20.5232 8.4361 20.0915 8.4361 19.5589L8.4361 8.3869L10.6471 10.5979C11.0237 10.9745 11.6342 10.9745 12.0108 10.5979C12.3874 10.2213 12.3874 9.61077 12.0108 9.2342L8.15367 5.37705C7.77709 5.00048 7.16654 5.00048 6.78997 5.37705L2.93282 9.2342ZM16.6537 15.0199C16.2771 14.6433 15.6665 14.6433 15.29 15.0199C14.9134 15.3965 14.9134 16.007 15.29 16.3836L19.1471 20.2408C19.3279 20.4216 19.5732 20.5232 19.829 20.5232C20.0847 20.5232 20.33 20.4216 20.5108 20.2408L24.368 16.3836C24.7445 16.007 24.7445 15.3965 24.368 15.0199C23.9914 14.6433 23.3808 14.6433 23.0043 15.0199L20.7932 17.2309L20.7932 6.05891C20.7932 5.52635 20.3615 5.09462 19.829 5.09462C19.2964 5.09462 18.8647 5.52635 18.8647 6.05891L18.8647 17.2309L16.6537 15.0199Z" fill="#2D2D2D"/>
</g>
<defs>
<clipPath id="clip0_30_4319">
<rect width="24" height="27" fill="white" transform="translate(0.150391 24.8088) rotate(-90)"/>
</clipPath>
</defs>
</svg>
