<svg width="20" height="20" viewBox="0 0 20 20" fill="none" xmlns="http://www.w3.org/2000/svg">
<path d="M10.4574 0.484608C10.6037 0.638743 10.7199 0.821982 10.7995 1.02386C10.8791 1.22574 10.9205 1.4423 10.9213 1.66118C10.9221 1.88006 10.8824 2.09696 10.8043 2.2995C10.7262 2.50205 10.6113 2.68627 10.4662 2.84163L5.33765 8.33372L18.4316 8.33372C18.8476 8.33372 19.2465 8.50929 19.5406 8.82182C19.8348 9.13434 20 9.55822 20 10.0002C20 10.4422 19.8348 10.866 19.5406 11.1786C19.2465 11.4911 18.8476 11.6667 18.4316 11.6667L5.33765 11.6667L10.4662 17.1588C10.7592 17.4728 10.9228 17.8977 10.921 18.3399C10.9191 18.7822 10.752 19.2055 10.4564 19.5168C10.1608 19.8281 9.76097 20.0019 9.34478 20C8.92859 19.998 8.53017 19.8205 8.23718 19.5064L0.455095 11.174C0.163579 10.8619 -5.31842e-07 10.4399 -5.89781e-07 10.0002C-6.4772e-07 9.56044 0.163579 9.13852 0.455095 8.82637L8.23718 0.493981C8.38228 0.338265 8.55485 0.214485 8.74502 0.129723C8.9352 0.0449609 9.13924 0.000883017 9.34547 1.22996e-05C9.55169 -0.000858418 9.75605 0.0414946 9.94686 0.124648C10.1377 0.207801 10.3112 0.330122 10.4574 0.484608Z" fill="#27884D"/>
</svg>
