<svg width="16" height="17" viewBox="0 0 16 17" fill="none" xmlns="http://www.w3.org/2000/svg">
<path d="M8 10C9.10457 10 10 9.10457 10 8C10 6.89543 9.10457 6 8 6C6.89543 6 6 6.89543 6 8C6 9.10457 6.89543 10 8 10ZM7.5 4.03095V2.5C7.5 2.22386 7.72386 2 8 2C8.27614 2 8.5 2.22386 8.5 2.5V4.03095C10.3094 4.25657 11.7434 5.69064 11.9691 7.5H13.5C13.7761 7.5 14 7.72386 14 8C14 8.27614 13.7761 8.5 13.5 8.5H11.9691C11.7434 10.3097 10.3089 11.7439 8.49906 11.9692C8.49968 11.9794 8.5 11.9896 8.5 12V13.5C8.5 13.7761 8.27614 14 8 14C7.72386 14 7.5 13.7761 7.5 13.5V12C7.5 11.9896 7.50032 11.9794 7.50094 11.9692C5.69083 11.7439 4.25612 10.3092 4.03083 8.49906C4.02063 8.49969 4.01035 8.5 4 8.5H2.5C2.22386 8.5 2 8.27614 2 8C2 7.72386 2.22386 7.5 2.5 7.5H4C4.01035 7.5 4.02063 7.50032 4.03083 7.50094C4.25608 5.69114 5.69033 4.25661 7.5 4.03095ZM5 8C5 9.65685 6.34315 11 8 11C9.65685 11 11 9.65685 11 8C11 6.34315 9.65685 5 8 5C6.34315 5 5 6.34315 5 8Z" fill="#27884D"/>
</svg>
