<svg width="62" height="20" viewBox="0 0 62 20" fill="none" xmlns="http://www.w3.org/2000/svg">
<path d="M38.1666 16.3999C38.4428 16.3999 38.6666 16.6238 38.6666 16.8999V17.4999C38.6666 17.7761 38.4428 17.9999 38.1666 17.9999H23.1666C22.8905 17.9999 22.6666 17.7761 22.6666 17.4999V16.8999C22.6666 16.6238 22.8905 16.3999 23.1666 16.3999H23.4666V10.9935C22.9741 10.6648 22.5704 10.2196 22.2913 9.69734C22.0122 9.17511 21.8663 8.59206 21.8666 7.99992C21.8666 7.33832 22.0458 6.70072 22.373 6.15752L24.5426 2.39992C24.6128 2.27831 24.7138 2.17732 24.8354 2.10711C24.957 2.03689 25.095 1.99993 25.2354 1.99992H36.0986C36.239 1.99993 36.377 2.03689 36.4986 2.10711C36.6202 2.17732 36.7212 2.27831 36.7914 2.39992L38.953 6.14552C39.4303 6.93822 39.5837 7.88435 39.3813 8.78724C39.179 9.69012 38.6365 10.4803 37.8666 10.9935V16.3999H38.1666ZM25.9865 3.59992C25.8078 3.59992 25.6428 3.6952 25.5535 3.84988L23.7514 6.97032C23.5623 7.43764 23.5566 7.95915 23.7355 8.43047C23.9144 8.90179 24.2648 9.28816 24.7164 9.51224C25.168 9.73632 25.6875 9.78159 26.1711 9.63898C26.6546 9.49637 27.0665 9.1764 27.3242 8.74312C27.5922 8.07352 28.5402 8.07352 28.809 8.74312C28.9573 9.11466 29.2135 9.4332 29.5446 9.65761C29.8758 9.88201 30.2666 10.002 30.6666 10.002C31.0666 10.002 31.4575 9.88201 31.7886 9.65761C32.1197 9.4332 32.376 9.11466 32.5242 8.74312C32.7922 8.07352 33.7402 8.07352 34.009 8.74312C34.1128 8.99868 34.2684 9.23 34.4659 9.42254C34.6635 9.61509 34.8987 9.76469 35.1568 9.86194C35.4149 9.95919 35.6904 10.002 35.9659 9.98767C36.2413 9.97334 36.5109 9.90218 36.7575 9.77866C37.0042 9.65515 37.2226 9.48195 37.3991 9.26995C37.5755 9.05795 37.7063 8.81174 37.783 8.54678C37.8597 8.28183 37.8808 8.00387 37.845 7.73037C37.8091 7.45686 37.7171 7.19374 37.5746 6.95752L35.779 3.84978C35.6896 3.69516 35.5246 3.59992 35.3461 3.59992H25.9865Z" fill="#A0A0A9"/>
<path d="M50.6022 0L52.2053 4.37946L56.5376 6L52.2053 7.62054L50.6022 12L48.999 7.62054L44.6667 6L48.999 4.37946L50.6022 0Z" fill="url(#paint0_linear_62_84)"/>
<path d="M56.5375 0L57.0719 1.45982L58.516 2L57.0719 2.54018L56.5375 4L56.0031 2.54018L54.559 2L56.0031 1.45982L56.5375 0Z" fill="url(#paint1_linear_62_84)"/>
<defs>
<linearGradient id="paint0_linear_62_84" x1="78.5561" y1="-47.3831" x2="32.3905" y2="-44.8108" gradientUnits="userSpaceOnUse">
<stop offset="0.484882" stop-color="#9F5DF4"/>
<stop offset="0.838287" stop-color="#CF44A8"/>
</linearGradient>
<linearGradient id="paint1_linear_62_84" x1="65.8555" y1="-15.7944" x2="50.4669" y2="-14.9369" gradientUnits="userSpaceOnUse">
<stop offset="0.484882" stop-color="#9F5DF4"/>
<stop offset="0.838287" stop-color="#CF44A8"/>
</linearGradient>
</defs>
</svg>
