<svg width="17" height="17" viewBox="0 0 17 17" fill="none" xmlns="http://www.w3.org/2000/svg">
<path d="M14.1191 5.26593V1.3785C14.1191 1.03332 13.8393 0.7535 13.4941 0.7535H12.0098C11.6646 0.7535 11.3848 1.03332 11.3848 1.3785V2.83454L9.08702 0.607104C8.84396 0.371488 8.45751 0.372199 8.21532 0.608708L0.998272 7.65661C0.597342 8.04815 0.874548 8.72876 1.43494 8.72876H2.08789V14.5719C2.08789 15.4348 2.78745 16.1344 3.65039 16.1344H6.38477C6.72994 16.1344 7.00977 15.8545 7.00977 15.5094V11.0627C7.00977 10.7176 7.28959 10.4377 7.63477 10.4377H9.66602C10.0112 10.4377 10.291 10.7176 10.291 11.0627V15.5094C10.291 15.8545 10.5708 16.1344 10.916 16.1344H13.6504C14.5133 16.1344 15.2129 15.4348 15.2129 14.5719V8.72876H15.9471C16.4959 8.72876 16.7783 8.0722 16.4008 7.67388L14.1191 5.26593Z" fill="#2D2D2D"/>
</svg>
