<svg width="14" height="12" viewBox="0 0 14 12" fill="none" xmlns="http://www.w3.org/2000/svg">
<path d="M0.307752 0.504694C0.169638 1.14504 0.119415 1.99256 0.119415 2.55757C0.119415 7.30994 2.95703 10.4489 7.28878 10.4489C9.41699 10.4489 10.6788 9.50093 11.3066 8.80408C11.8214 9.53232 12.1102 10.3108 12.4367 11.3404C12.5308 11.648 12.7506 11.7735 12.9954 11.7735C13.4788 11.7735 13.8743 11.3529 13.8743 10.7753C13.8743 9.90271 12.6062 8.3709 11.947 7.75567C9.15332 5.16918 4.90945 6.71982 3.84849 3.90732C3.77315 3.70642 3.98032 3.5432 4.16866 3.73154C6.34709 5.97275 9.19098 4.10193 11.8968 6.5817C12.1353 6.80143 12.4304 6.68843 12.4743 6.43103C12.5057 6.25525 12.5245 5.96647 12.5245 5.67769C12.5245 2.60151 10.3901 1.05715 7.30761 1.05715C6.29059 1.05715 5.09779 1.31454 4.16866 1.31454C3.17048 1.31454 2.04045 1.23921 1.13016 0.27869C0.841374 -0.0226494 0.414477 0.0401296 0.307752 0.504694Z" fill="#2D2D2D"/>
</svg>
