<svg width="15" height="17" viewBox="0 0 15 17" fill="none" xmlns="http://www.w3.org/2000/svg">
<path d="M12.6001 12.2638C15.3338 9.52894 15.3338 5.09485 12.6001 2.35999C9.86647 -0.374878 5.43431 -0.374878 2.70064 2.35999C-0.033027 5.09485 -0.033027 9.52894 2.70064 12.2638L4.22167 13.7627L6.26447 15.7478L6.39731 15.8655C7.17207 16.4935 8.30662 16.4543 9.0365 15.7479L11.4727 13.378L12.6001 12.2638ZM7.65039 10.3088C5.99354 10.3088 4.65039 8.96569 4.65039 7.30884C4.65039 5.65198 5.99354 4.30884 7.65039 4.30884C9.30725 4.30884 10.6504 5.65198 10.6504 7.30884C10.6504 8.96569 9.30725 10.3088 7.65039 10.3088Z" fill="#676769"/>
</svg>
