<svg width="26" height="26" viewBox="0 0 26 26" fill="none" xmlns="http://www.w3.org/2000/svg">
<rect x="0.199951" y="0.199997" width="25.6" height="25.6" rx="12.8" fill="white"/>
<path fill-rule="evenodd" clip-rule="evenodd" d="M14.1424 18.2576C14.1424 18.8881 13.6313 19.3993 13.0007 19.3993C12.3702 19.3993 11.8591 18.8881 11.8591 18.2576V14.1411H7.742C7.11148 14.1411 6.60034 13.63 6.60034 12.9995C6.60034 12.369 7.11148 11.8578 7.742 11.8578H11.8591V7.74095C11.8591 7.11043 12.3702 6.59929 13.0007 6.59929C13.6313 6.59929 14.1424 7.11043 14.1424 7.74095V11.8578H18.2587C18.8892 11.8578 19.4003 12.369 19.4003 12.9995C19.4003 13.63 18.8892 14.1411 18.2587 14.1411H14.1424V18.2576Z" fill="#0D873C"/>
</svg>
