<svg width="27" height="27" viewBox="0 0 27 27" fill="none" xmlns="http://www.w3.org/2000/svg">
<rect x="0.850403" y="0.508835" width="25.6" height="25.6" rx="12.8" fill="white"/>
<path fill-rule="evenodd" clip-rule="evenodd" d="M14.7928 18.5664C14.7928 19.197 14.2817 19.7081 13.6512 19.7081C13.0207 19.7081 12.5095 19.197 12.5095 18.5664V14.45H8.39245C7.76193 14.45 7.25079 13.9388 7.25079 13.3083C7.25079 12.6778 7.76193 12.1667 8.39245 12.1667H12.5095V8.04979C12.5095 7.41927 13.0207 6.90813 13.6512 6.90813C14.2817 6.90813 14.7928 7.41927 14.7928 8.04979V12.1667H18.9091C19.5396 12.1667 20.0508 12.6778 20.0508 13.3083C20.0508 13.9388 19.5396 14.45 18.9091 14.45H14.7928V18.5664Z" fill="#0D873C"/>
</svg>
