<svg width="18" height="18" viewBox="0 0 18 18" fill="none" xmlns="http://www.w3.org/2000/svg">
<path fill-rule="evenodd" clip-rule="evenodd" d="M7.2 0C3.22355 0 0 3.22355 0 7.2C0 11.1765 3.22355 14.4 7.2 14.4C8.53452 14.4 9.78424 14.0369 10.8558 13.4042L14.9272 17.4728L15.0968 17.6225C15.8029 18.1716 16.8239 18.1217 17.4728 17.4728C18.1757 16.7698 18.1757 15.6302 17.4728 14.9272L13.4042 10.8558C14.0369 9.78424 14.4 8.53452 14.4 7.2C14.4 3.22355 11.1765 0 7.2 0ZM10.8 7.2C10.8 5.21177 9.18823 3.6 7.2 3.6C5.21178 3.6 3.6 5.21177 3.6 7.2C3.6 9.18823 5.21178 10.8 7.2 10.8C9.18823 10.8 10.8 9.18823 10.8 7.2Z" fill="white"/>
</svg>
