<svg width="21" height="21" viewBox="0 0 21 21" fill="none" xmlns="http://www.w3.org/2000/svg">
<path d="M1.50055 0.308838C1.03102 0.308838 0.650391 0.681934 0.650391 1.14217C0.650391 1.60241 1.03102 1.9755 1.50055 1.9755H1.91832C2.2979 1.9755 2.63149 2.22215 2.73577 2.5799L5.43173 11.829C5.74456 12.9022 6.74534 13.6422 7.88408 13.6422H15.6523C16.6952 13.6422 17.633 13.0198 18.0204 12.0706L20.5271 5.92782C20.9739 4.83305 20.1513 3.64217 18.9484 3.64217H4.81377L4.37067 2.12204C4.05783 1.04878 3.05706 0.308838 1.91832 0.308838H1.50055ZM8.30185 20.3088C9.71044 20.3088 10.8523 19.1896 10.8523 17.8088C10.8523 16.4281 9.71044 15.3088 8.30185 15.3088C6.89325 15.3088 5.75136 16.4281 5.75136 17.8088C5.75136 19.1896 6.89325 20.3088 8.30185 20.3088ZM15.1031 20.3088C16.5117 20.3088 17.6536 19.1896 17.6536 17.8088C17.6536 16.4281 16.5117 15.3088 15.1031 15.3088C13.6945 15.3088 12.5527 16.4281 12.5527 17.8088C12.5527 19.1896 13.6945 20.3088 15.1031 20.3088Z" fill="#27884D"/>
</svg>
