<svg width="22" height="22" viewBox="0 0 22 22" fill="none" xmlns="http://www.w3.org/2000/svg">
<path d="M10.5215 21.5C16.2792 21.5 21.0316 16.7476 21.0316 11C21.0316 5.25242 16.2691 0.5 10.5113 0.5C4.76375 0.5 0.0214844 5.25242 0.0214844 11C0.0214844 16.7476 4.7739 21.5 10.5215 21.5ZM7.05872 15.4275C6.52052 15.4275 6.09402 15.001 6.09402 14.4526C6.09402 14.2089 6.19557 13.9652 6.38851 13.7824L9.15059 11.0102L6.38851 8.24807C6.19557 8.06528 6.09402 7.82157 6.09402 7.57785C6.09402 7.0295 6.52052 6.61315 7.05872 6.61315C7.34305 6.61315 7.56645 6.70455 7.74924 6.88733L10.5215 9.64942L13.3039 6.87718C13.507 6.68424 13.7202 6.59284 13.9944 6.59284C14.5326 6.59284 14.9591 7.01934 14.9591 7.55754C14.9591 7.81141 14.8576 8.03482 14.6646 8.23791L11.9025 11.0102L14.6646 13.7722C14.8474 13.9652 14.9489 14.1987 14.9489 14.4526C14.9489 15.001 14.5225 15.4275 13.9741 15.4275C13.6999 15.4275 13.4664 15.3259 13.2734 15.1431L10.5215 12.3912L7.76955 15.1431C7.58676 15.3361 7.34305 15.4275 7.05872 15.4275Z" fill="#A0A0A9"/>
</svg>
